PathFileType	4	(X/Y/Z)	C:\Users\Biomechanik\SynologyDrive\AlexP\Athlete_03\Athlete_3_25_03_31\Walking_06\marker_experimental.trc
DataRate	CameraRate	NumFrames	NumMarkers	Units	OrigDataRate	OrigDataStartFrame	OrigNumFrames
200.000000	200.000000	4	53	mm	200.000000	111	445
Frame#	Time	GLAB			RFHD			LFHD			C7			T6			SPINMOL			SPINM2			SPINM3			T12			BELTOL			BELT2			BELT3			SACROL			SACR2			SACR3			LTHOL			LTH2			LTH3			LSHAOL			LSHA2			LSHA3			LHEE			LTOE			LM5			RTHOL			RTH2			RTH3			RSHAOL			RSHA2			RSHA3			RHEE			RTOE			RM5			STRN			XIPH			LACR			LUAOL			LUA2			LUA3			LLAOL			LLA2			LLA3			LWRR			LWRU			RACR			RUAOL			RUA2			RUA3			RLAOL			RLA2			RLA3			RWRR			RWRU			
		X1	Y1	Z1	X2	Y2	Z2	X3	Y3	Z3	X4	Y4	Z4	X5	Y5	Z5	X6	Y6	Z6	X7	Y7	Z7	X8	Y8	Z8	X9	Y9	Z9	X10	Y10	Z10	X11	Y11	Z11	X12	Y12	Z12	X13	Y13	Z13	X14	Y14	Z14	X15	Y15	Z15	X16	Y16	Z16	X17	Y17	Z17	X18	Y18	Z18	X19	Y19	Z19	X20	Y20	Z20	X21	Y21	Z21	X22	Y22	Z22	X23	Y23	Z23	X24	Y24	Z24	X25	Y25	Z25	X26	Y26	Z26	X27	Y27	Z27	X28	Y28	Z28	X29	Y29	Z29	X30	Y30	Z30	X31	Y31	Z31	X32	Y32	Z32	X33	Y33	Z33	X34	Y34	Z34	X35	Y35	Z35	X36	Y36	Z36	X37	Y37	Z37	X38	Y38	Z38	X39	Y39	Z39	X40	Y40	Z40	X41	Y41	Z41	X42	Y42	Z42	X43	Y43	Z43	X44	Y44	Z44	X45	Y45	Z45	X46	Y46	Z46	X47	Y47	Z47	X48	Y48	Z48	X49	Y49	Z49	X50	Y50	Z50	X51	Y51	Z51	X52	Y52	Z52	X53	Y53	Z53	

112	0.555	333.7387084960936	1563.091186523438	220.2935028076172	284.9168395996092	1593.078979492188	284.1391296386719	289.9002685546874	1582.559204101562	146.1536712646485	106.5339202880858	1407.904663085938	223.2356414794922	42.31384277343738	1242.036254882812	224.2024993896484	33.34532928466786	1201.5107421875	203.6604156494141	26.59388542175281	1195.168579101562	253.2394561767578	34.80927276611317	1137.57958984375	220.7222442626953	55.55958938598622	1069.744995117188	222.5773773193359	19.05410957336416	1034.064819335938	202.2056427001953	15.78864002227772	1033.622680664062	252.9370727539062	11.41445922851552	972.5860595703125	224.9167327880859	31.24178886413565	927.0697631835938	195.119384765625	24.86188697814931	929.4984741210938	246.8049468994141	7.668518066406156	870.3743286132812	220.9058685302734	215.2734222412109	634.2966918945312	43.21213531494145	196.1259002685547	566.0762329101562	77.02126312255864	239.7751312255859	580.3084106445312	57.81602478027348	358.7869262695312	308.3655090332031	42.75565719604499	346.8397827148438	231.1258087158203	57.52328491210944	389.7618103027344	254.7771148681641	46.99171447753913	433.8012084960938	51.31313705444339	125.7274551391602	638.1336669921875	133.6564178466797	118.0187301635743	610.4984741210938	87.97760772705082	25.53193283081066	27.8649158477782	691.4068603515625	410.70068359375	61.31795120239246	620.9766235351562	423.9773864746094	18.1042137145995	631.7037353515625	400.7674865722656	-110.4447402954103	367.9552307128906	393.2721557617188	-106.7100067138673	289.0502319335938	388.5628356933594	-145.7037353515626	318.7688598632812	378.4631042480469	-261.1635437011719	132.1636657714843	269.7708129882812	-74.25756072998053	42.40848159790038	275.1767883300781	-120.360450744629	41.73042297363281	379.8595886230469	274.5973815917968	1300.54052734375	221.4154357910157	283.0326538085936	1155.7099609375	228.5747528076172	175.0368194580077	1364.168212890625	47.95758438110355	125.1387252807617	1214.058227539062	-48.65019607543943	95.1683731079101	1156.92138671875	-63.60632324218749	144.862808227539	1151.516357421875	-53.05331802368161	72.67308044433589	959.2979736328125	-97.24930572509764	21.07283973693843	903.955322265625	-73.27308654785156	62.12432479858395	898.7598876953125	-101.5641021728515	53.35905838012692	795.6390991210938	-113.2880172729492	108.9036254882812	778.467529296875	-60.76552963256834	192.7523040771483	1366.846923828125	389.0892333984376	196.2296142578123	1228.048583984375	495.8346557617188	230.5938720703123	1172.062255859375	505.8344421386719	182.080612182617	1169.636352539062	522.9260864257812	300.7120361328123	973.6150512695312	548.0366821289062	380.260040283203	966.9492797851562	550.6503906250001	346.649688720703	933.1060791015625	536.6759033203126	426.8737487792967	892.0393676757812	523.3940429687501	450.1249999999999	916.1827392578125	448.8554382324219	
113	0.5600000000000001	341.171905517578	1562.575927734375	218.7398529052735	292.3282775878905	1592.598999023438	282.5576782226563	297.3742065429686	1582.042724609375	144.5720520019532	114.0075302124022	1407.298828125	221.583480834961	49.95959472656238	1241.390258789062	222.8607482910156	41.00907516479482	1200.852416992188	202.3695373535156	34.33091354370105	1194.532958984375	251.9478912353516	42.54751586914051	1136.935546875	219.4903717041016	63.40119171142567	1069.116088867188	221.3968200683594	27.00701713562002	1033.358154296875	200.8541870117188	23.73684310913075	1032.886352539062	251.5589752197266	19.43379974365224	971.8679809570312	223.5523376464844	39.21704101562491	926.4464721679688	194.0686798095703	32.90053176879873	928.8040161132812	245.7319183349609	15.74826431274405	869.6942138671875	219.8228149414062	224.7449798583984	634.59228515625	42.0740242004395	205.1080932617187	566.0076904296875	74.80393981933598	249.0929412841797	580.5113525390625	56.57413101196293	365.3641662597656	307.635986328125	42.71094131469733	352.6001586914062	230.6328735351563	57.79454421997077	395.7239990234375	253.7524871826172	47.08381652832038	437.2201843261719	50.82502746582034	126.2424545288087	642.625732421875	129.5010833740235	118.4012603759767	614.1361083984375	84.42066955566411	25.99830818176281	35.52005386352527	691.224609375	409.9732055664062	68.76462554931629	620.7819213867188	423.5385131835938	25.64594268798817	631.5355224609375	400.1539001464844	-104.580047607422	369.2111206054688	393.4996948242188	-101.9151611328126	290.2727661132812	388.7080078125	-140.5134887695313	320.5214538574219	378.6770324707031	-258.5982666015626	135.8983917236328	270.4635314941406	-74.35252380371099	42.18347549438476	275.1769714355469	-119.6138458251954	41.95442962646484	380.0749206542969	282.2146606445311	1300.118041992188	219.9285583496094	290.891143798828	1155.343383789062	227.2624969482422	182.5439147949218	1363.408935546875	46.37973403930668	132.6694030761718	1213.135009765625	-49.97339248657224	102.7213821411132	1155.977661132812	-64.87583160400389	152.4230194091796	1150.605346679688	-54.34998703002927	80.22315979003902	958.3497924804688	-98.31434631347655	28.5711402893066	903.0701904296875	-74.27951049804688	69.61895751953121	897.8089599609375	-102.5658493041992	60.76162338256833	794.6920166015625	-114.1984405517578	116.277473449707	777.5064697265625	-61.64365768432615	200.1802368164061	1366.508911132812	387.5555419921876	203.5256958007811	1227.64599609375	494.2363891601563	237.7447204589842	1171.5693359375	504.2194213867188	189.2235870361326	1169.2451171875	521.304931640625	307.3427734374998	972.9552612304688	546.4939575195312	386.8476257324217	966.109130859375	549.3825073242189	353.2250671386717	932.35009765625	535.2463989257814	433.413360595703	891.1392211914062	522.2410278320314	456.8750915527343	915.22119140625	447.7285766601563	
114	0.5650000000000001	348.6159667968748	1562.148681640625	217.1719665527344	299.7455444335936	1592.203735351562	280.9596557617188	304.8633422851561	1581.615844726562	142.9743194580079	121.4916839599608	1406.767211914062	219.8978881835938	57.63455963134754	1240.810913085938	221.4879760742188	48.705165863037	1200.260620117188	201.0485534667969	42.09803771972645	1193.964111328125	250.6289367675781	50.32794952392567	1136.357666015625	218.2262573242188	71.2947540283202	1068.560546875	220.1893157958984	35.05841445922842	1032.72607421875	199.5143737792969	31.78826904296864	1032.223999023438	250.1959533691406	27.55747604370107	971.2229614257812	222.1965942382812	47.24119949340811	925.881103515625	193.0244445800781	41.00986862182607	928.1453857421875	244.6630096435547	23.9304313659667	869.0474853515625	218.7359466552734	234.2426605224609	635.0083618164062	40.92549896240239	214.119384765625	566.0694580078125	72.58502197265629	258.4277038574218	580.82177734375	55.30029296875005	371.8978271484375	307.0228271484375	42.5842475891114	358.2348022460938	230.2649841308594	57.91624069213874	401.5845642089844	252.8173828125	47.1064529418946	440.1515502929688	50.469596862793	126.6980438232423	646.74755859375	124.9962768554688	118.7687377929689	617.3013305664062	80.62377929687504	26.44363403320324	43.35416412353504	691.01123046875	409.2157592773438	76.42461395263661	620.5764770507812	423.0754089355469	33.39883804321278	631.3331298828125	399.5125122070312	-98.45211791992197	370.489013671875	393.7371826171875	-96.88195800781259	291.5312194824219	388.8717041015625	-135.0635070800782	322.316650390625	378.8939514160156	-255.7357330322266	139.7833862304687	271.1553344726562	-74.45753479003912	41.94650268554687	275.1815185546875	-118.8262100219727	42.20361709594726	380.292724609375	289.8561706542968	1299.786499023438	218.4119262695313	298.803009033203	1155.074462890625	225.9173126220704	190.0669708251952	1362.713623046875	44.76791000366214	140.2475585937499	1212.258911132812	-51.32210922241208	110.3371810913085	1155.074096679688	-66.1727828979492	160.0472259521484	1149.746704101562	-55.67060470581052	87.90001678466793	957.4273071289062	-99.39948272705077	36.20340728759761	902.1995849609375	-75.31723785400391	77.25937652587886	896.8795166015625	-103.5822448730469	68.34075164794919	793.7636108398438	-115.1141204833984	123.8156509399414	776.587158203125	-62.50556564331053	207.6237945556639	1366.248168945312	385.9960021972657	210.801803588867	1227.309692382812	492.6162109375001	244.860641479492	1171.136962890625	502.5906066894532	196.329620361328	1168.922607421875	519.66259765625	313.8728942871092	972.3212280273438	544.9409179687501	393.3273620605467	965.251220703125	548.1251220703126	359.6768188476561	931.5931396484375	533.8209228515626	439.8121643066405	890.194580078125	521.1175537109376	463.5012817382811	914.1754760742188	446.6240234375001	
115	0.5700000000000001	356.0697021484373	1561.8134765625	215.5920104980469	307.1674499511717	1591.897338867188	279.3472900390626	312.3668518066405	1581.283569335938	141.3626861572266	128.9843902587889	1406.315063476562	218.1806945800782	65.33766174316395	1240.302368164062	220.0836944580078	56.43255233764638	1199.739135742188	199.6972961425781	49.89300155639637	1193.466674804688	249.2819366455078	58.14918518066395	1135.850341796875	216.9305725097656	79.23729705810536	1068.083251953125	218.9591979980469	43.20846939086904	1032.174194335938	198.1974182128906	39.94570541381825	1031.640991210938	248.8591156005859	35.78732299804678	970.6566772460938	220.8611907958984	55.30884552001944	925.3816528320312	191.9895782470703	49.18414688110342	927.5293579101562	243.6009216308594	32.2124481201171	868.4407958984375	217.6465454101562	243.7133178710937	635.5357666015625	39.77240753173832	223.1127166748047	566.259521484375	70.39095306396489	267.7279663085937	581.2323608398438	54.00545883178716	378.4087524414062	306.5436401367188	42.35990524291999	363.7849731445312	230.037826538086	57.8663406372071	407.3777770996094	251.9976043701172	47.04230499267586	442.674072265625	50.2708435058594	127.0734100341798	650.544921875	120.2296524047852	119.1119537353517	620.0653076171875	76.65104675292973	26.85949325561535	51.36597442626941	690.764892578125	408.4231262207031	84.29880523681629	620.3602905273438	422.5894165039062	41.36540603637685	631.0936889648438	398.840576171875	-92.04843139648447	371.78759765625	393.9816284179688	-91.59700775146493	292.8252563476562	389.0552368164062	-129.3381652832032	324.1522216796875	379.1079711914062	-252.5437011718751	143.81982421875	271.8359680175781	-74.5620956420899	41.70063781738281	275.1872863769531	-117.9936218261719	42.48547744750976	380.5086669921875	297.519317626953	1299.55126953125	216.8668975830079	306.7654724121093	1154.908203125	224.5398406982422	197.6042480468749	1362.087890625	43.12342453002933	147.8724670410155	1211.435668945312	-52.69566726684567	118.015022277832	1154.216430664062	-67.49584197998044	167.7345581054687	1148.945678710938	-57.01350021362302	95.70310974121089	956.5352783203125	-100.5029907226562	43.96940994262691	901.3485107421875	-76.38376617431639	85.04472351074214	895.9769897460938	-104.6116943359375	76.09602355957028	792.8590087890625	-116.033088684082	131.5181427001953	775.7145385742188	-63.3497619628906	215.0816040039061	1366.066772460938	384.4122619628907	218.057403564453	1227.041870117188	490.9749450683594	251.941207885742	1170.767456054688	500.9493408203126	203.3987426757811	1168.67138671875	518.0005493164062	320.3024291992186	971.7158203125	543.3800659179689	399.6994323730467	964.3790283203125	546.8801879882814	366.0048217773436	930.8390502929688	532.4023437500001	446.0701599121092	889.2094116210938	520.0257568359376	470.0014343261718	913.0476684570312	445.5442504882814	
